#!OML:ASF Y:\EmotionMaleHayes\Project 1\Capture day 1\Session 1\Male1.ASF
:FULLY-SPECIFIED
:DEGREES
460
root -22.0788 16.9111 -17.5647 86.1524 79.421 88.5307
lowerback 10.0669 0.637079 -15.6121
upperback 3.46261 -0.484129 -3.40789
thorax -1.81456 -0.164437 5.17291
lowerneck -20.3761 -1.0782 -1.56653
upperneck 25.573 -1.60934 2.98075
head 11.8034 -0.378751 1.1396
rclavicle -4.17448e-015 -5.28767e-014
rhumerus -45.7128 -2.64204 -78.1103
rradius 29.1308
rwrist 4.88645
rhand -8.80673 -31.7871
rfingers 7.12502
rthumb 17.1325 -61.0517
lclavicle -4.17448e-015 -5.28767e-014
lhumerus -13.9086 -12.2774 78.6677
lradius 44.0805
lwrist 4.21249
lhand -22.2166 -25.0546
lfingers 7.12502
lthumb 4.19964 4.88378
rfemur -25.0906 -2.38922 11.4067
rtibia 42.3514
rfoot -12.054 -0.0339175
rtoes 16.6952
lfemur 10.7462 1.22096 -30.4378
ltibia 5.85564
lfoot -9.99184 3.29818
ltoes -10.761
461
root -21.979 16.8877 -17.5827 88.8325 79.5538 91.001
lowerback 10.1442 0.454237 -15.607
upperback 3.4147 -0.748816 -3.25617
thorax -1.85383 -0.294024 5.36274
lowerneck -20.6971 -0.926999 -1.40563
upperneck 25.7447 -1.38361 2.75093
head 11.924 -0.289714 1.06466
rclavicle -3.67752e-015 -1.19271e-014
rhumerus -45.7984 -2.97827 -77.8268
rradius 29.2189
rwrist 4.95511
rhand -8.74163 -32.3879
rfingers 7.12502
rthumb 17.1951 -61.6471
lclavicle -3.67752e-015 -1.19271e-014
lhumerus -13.7869 -12.6871 78.9455
lradius 44.6439
lwrist 4.63517
lhand -22.1649 -25.1924
lfingers 7.12502
lthumb 4.24957 4.745
rfemur -25.21 -2.19504 11.4823
rtibia 39.3387
rfoot -12.3437 -1.38946
rtoes 17.6467
lfemur 10.846 0.946355 -30.3863
ltibia 6.08246
lfoot -9.99184 3.29818
ltoes -10.761
462
root -21.8344 16.8736 -17.6219 86.9117 79.3699 89.0021
lowerback 9.74551 0.498806 -15.7101
upperback 3.44706 -0.618705 -3.25424
thorax -1.62168 -0.248804 5.40345
lowerneck -20.5584 -0.750091 -1.10205
upperneck 25.5307 -1.12418 2.36316
head 11.802 -0.199796 0.907254
rclavicle -1.04362e-014 -3.37934e-014
rhumerus -45.9402 -3.26093 -77.5801
rradius 29.3031
rwrist 5.00156
rhand -8.59443 -33.0264
rfingers 7.12502
rthumb 17.3368 -62.2731
lclavicle -1.04362e-014 -3.37934e-014
lhumerus -13.737 -13.1093 79.2528
lradius 45.1027
lwrist 5.02894
lhand -21.9865 -25.3903
lfingers 7.12502
lthumb 4.42184 4.54351
rfemur -25.0204 -2.64311 11.2105
rtibia 35.9498
rfoot -12.0521 -1.52792
rtoes 17.0557
lfemur 11.52 1.11332 -30.7981
ltibia 5.73865
lfoot -9.99184 3.29818
ltoes -10.761
463
root -21.7081 16.8521 -17.6525 88.264 79.1516 90.0559
lowerback 9.48617 0.357507 -15.869
upperback 3.34497 -0.783218 -3.26611
thorax -1.5499 -0.332075 5.49246
lowerneck -20.3985 -0.573357 -0.81877
upperneck 25.3245 -0.896407 2.10821
head 11.6832 -0.107397 0.798389
rclavicle 4.77083e-015 2.98177e-014
rhumerus -46.0553 -3.71688 -77.252
rradius 29.0969
rwrist 5.57236
rhand -8.51541 -32.6838
rfingers 7.12502
rthumb 17.4129 -61.9238
lclavicle 4.77083e-015 2.98177e-014
lhumerus -13.7619 -13.5246 79.5474
lradius 45.4919
lwrist 5.25021
lhand -21.9779 -25.5298
lfingers 7.12502
lthumb 4.43015 4.40392
rfemur -25.1747 -2.95111 10.8444
rtibia 32.8469
rfoot -12.1358 -2.24194
rtoes 16.5126
lfemur 11.6977 0.992597 -31.2175
ltibia 5.71607
lfoot -9.99184 3.29818
ltoes -10.761
464
root -21.5743 16.8276 -17.6807 88.0136 79.0908 89.4733
lowerback 9.11314 0.310679 -15.8702
upperback 3.20749 -0.795325 -3.2409
thorax -1.48921 -0.33982 5.51848
lowerneck -20.3765 -0.518583 -0.607743
upperneck 25.3334 -0.810974 1.83656
head 11.6783 -0.084388 0.675429
rclavicle -8.94531e-016 3.73715e-014
rhumerus -46.3326 -4.0441 -77.0079
rradius 29.0506
rwrist 5.94338
rhand -8.43391 -32.2503
rfingers 7.12502
rthumb 17.4913 -61.4834
lclavicle -8.94531e-016 3.73715e-014
lhumerus -13.8475 -13.9227 79.8886
lradius 45.8101
lwrist 5.28728
lhand -21.7517 -25.8314
lfingers 7.12502
lthumb 4.64853 4.09757
rfemur -25.2889 -2.84366 10.7299
rtibia 29.6309
rfoot -12.1296 -2.94769
rtoes 15.9241
lfemur 11.9294 0.991873 -31.4208
ltibia 5.58168
lfoot -9.99184 3.29818
ltoes -10.761
